<svg xmlns="http://www.w3.org/2000/svg" xmlns:xlink="http://www.w3.org/1999/xlink" width="500" zoomAndPan="magnify" viewBox="0 0 375 374.999991" height="500" preserveAspectRatio="xMidYMid meet" version="1.0"><defs><g/><clipPath id="48f7caa842"><path d="M 96 169 L 116 169 L 116 215.5 L 96 215.5 Z M 96 169 " clip-rule="nonzero"/></clipPath><clipPath id="c9b076d071"><path d="M 120 165 L 140 165 L 140 215.5 L 120 215.5 Z M 120 165 " clip-rule="nonzero"/></clipPath><clipPath id="5f690372e8"><path d="M 144 147 L 163 147 L 163 215.5 L 144 215.5 Z M 144 147 " clip-rule="nonzero"/></clipPath><clipPath id="a34b38fa47"><path d="M 168 142 L 187 142 L 187 215.5 L 168 215.5 Z M 168 142 " clip-rule="nonzero"/></clipPath><clipPath id="5d67d7d657"><path d="M 192 122 L 211 122 L 211 215.5 L 192 215.5 Z M 192 122 " clip-rule="nonzero"/></clipPath><clipPath id="9c19026512"><path d="M 81 95.5 L 230.867188 95.5 L 230.867188 188 L 81 188 Z M 81 95.5 " clip-rule="nonzero"/></clipPath><clipPath id="b2f09f3cab"><path d="M 37 162.105469 L 214.261719 162.105469 L 214.261719 280 L 37 280 Z M 37 162.105469 " clip-rule="nonzero"/></clipPath><clipPath id="a9dbeac514"><path d="M 104 162.105469 L 133 162.105469 L 133 172 L 104 172 Z M 104 162.105469 " clip-rule="nonzero"/></clipPath><clipPath id="2ec2465d32"><path d="M 214 76 L 347 76 L 347 187 L 214 187 Z M 214 76 " clip-rule="nonzero"/></clipPath><clipPath id="df33bfc012"><path d="M 214.234375 79.351562 L 346.179688 75.585938 L 349.242188 182.789062 L 217.296875 186.558594 Z M 214.234375 79.351562 " clip-rule="nonzero"/></clipPath><clipPath id="db23747cff"><path d="M -17.046875 85.957031 L 346.554688 75.574219 L 352.292969 276.492188 L -11.308594 286.875 Z M -17.046875 85.957031 " clip-rule="nonzero"/></clipPath><clipPath id="ab8ba7d098"><path d="M 250 114 L 262 114 L 262 122 L 250 122 Z M 250 114 " clip-rule="nonzero"/></clipPath><clipPath id="54f0cb1b12"><path d="M 214.234375 79.351562 L 346.179688 75.585938 L 349.242188 182.789062 L 217.296875 186.558594 Z M 214.234375 79.351562 " clip-rule="nonzero"/></clipPath><clipPath id="2156900639"><path d="M -17.046875 85.957031 L 346.554688 75.574219 L 352.292969 276.492188 L -11.308594 286.875 Z M -17.046875 85.957031 " clip-rule="nonzero"/></clipPath></defs><g clip-path="url(#48f7caa842)"><path fill="#feda48" d="M 110.25 169.523438 C 110.125 169.523438 109.945312 169.5625 109.78125 169.707031 L 96.835938 181.683594 L 96.835938 213.582031 C 96.835938 214.648438 97.699219 215.511719 98.765625 215.511719 L 113.226562 215.511719 C 114.289062 215.511719 115.15625 214.648438 115.15625 213.582031 L 115.15625 173.480469 L 110.695312 169.695312 C 110.535156 169.554688 110.363281 169.523438 110.25 169.523438 " fill-opacity="1" fill-rule="nonzero"/></g><g clip-path="url(#c9b076d071)"><path fill="#feda48" d="M 122.835938 178.0625 C 122.097656 178.0625 121.371094 177.929688 120.6875 177.679688 L 120.6875 213.582031 C 120.6875 214.648438 121.550781 215.511719 122.617188 215.511719 L 137.078125 215.511719 C 138.140625 215.511719 139.007812 214.648438 139.007812 213.582031 L 139.007812 165.195312 L 127.097656 176.378906 C 125.941406 177.464844 124.425781 178.0625 122.835938 178.0625 " fill-opacity="1" fill-rule="nonzero"/></g><g clip-path="url(#5f690372e8)"><path fill="#feda48" d="M 157.707031 147.890625 C 157.582031 147.890625 157.394531 147.925781 157.234375 148.078125 L 144.539062 160.003906 L 144.539062 213.582031 C 144.539062 214.648438 145.402344 215.511719 146.46875 215.511719 L 160.929688 215.511719 C 161.992188 215.511719 162.859375 214.648438 162.859375 213.582031 L 162.859375 152.417969 L 158.175781 148.074219 C 158.007812 147.925781 157.832031 147.890625 157.707031 147.890625 " fill-opacity="1" fill-rule="nonzero"/></g><g clip-path="url(#a34b38fa47)"><path fill="#feda48" d="M 169.179688 156.019531 C 168.917969 156.019531 168.652344 156 168.390625 155.964844 L 168.390625 213.582031 C 168.390625 214.648438 169.253906 215.511719 170.320312 215.511719 L 184.78125 215.511719 C 185.84375 215.511719 186.710938 214.648438 186.710938 213.582031 L 186.710938 142.800781 L 173.265625 154.492188 C 172.132812 155.476562 170.683594 156.019531 169.179688 156.019531 " fill-opacity="1" fill-rule="nonzero"/></g><g clip-path="url(#5d67d7d657)"><path fill="#feda48" d="M 192.242188 213.582031 C 192.242188 214.648438 193.105469 215.511719 194.171875 215.511719 L 208.632812 215.511719 C 209.695312 215.511719 210.5625 214.648438 210.5625 213.582031 L 210.5625 122.046875 L 192.242188 137.988281 L 192.242188 213.582031 " fill-opacity="1" fill-rule="nonzero"/></g><g clip-path="url(#9c19026512)"><path fill="#feda48" d="M 226.441406 95.777344 L 209.660156 97.695312 C 206.902344 98.011719 205.621094 101.28125 207.425781 103.382812 L 209.398438 105.683594 C 210.632812 107.121094 210.476562 109.292969 209.039062 110.539062 L 171.597656 143.117188 C 170.265625 144.273438 168.273438 144.246094 166.980469 143.039062 L 160.027344 136.589844 C 158.695312 135.355469 156.636719 135.363281 155.308594 136.605469 L 124.976562 165.09375 C 123.691406 166.296875 121.710938 166.347656 120.371094 165.210938 L 112.292969 158.347656 C 110.960938 157.214844 108.988281 157.253906 107.707031 158.445312 L 82.421875 181.835938 C 81.019531 183.132812 80.929688 185.320312 82.226562 186.71875 C 83.523438 188.121094 85.714844 188.203125 87.113281 186.910156 L 107.902344 167.683594 C 109.183594 166.492188 111.15625 166.449219 112.488281 167.585938 L 120.601562 174.476562 C 121.9375 175.617188 123.925781 175.566406 125.207031 174.359375 L 155.339844 146.0625 C 156.660156 144.820312 158.722656 144.8125 160.058594 146.046875 L 166.828125 152.332031 C 168.125 153.539062 170.117188 153.566406 171.449219 152.410156 L 213.507812 115.816406 C 214.953125 114.5625 217.148438 114.71875 218.398438 116.179688 L 219.753906 117.757812 C 221.554688 119.863281 224.976562 119.089844 225.710938 116.421875 L 230.171875 100.121094 C 230.820312 97.761719 228.875 95.496094 226.441406 95.777344 " fill-opacity="1" fill-rule="nonzero"/></g><g clip-path="url(#b2f09f3cab)"><path fill="#669639" d="M 223.242188 249.421875 L 231.21875 252.351562 L 231.21875 246.003906 L 245.707031 252.351562 L 245.707031 247.507812 L 237.203125 241.769531 L 254.460938 247.265625 L 252.179688 241.320312 L 243.632812 236.234375 L 252.058594 237.089844 L 246.484375 231.472656 C 246.484375 231.472656 226.878906 228.3125 221.5625 225.164062 C 216.242188 222.015625 202.675781 211.8125 202.242188 210.402344 L 215.699219 217.671875 L 223.296875 212.03125 L 219.28125 202.261719 L 226.550781 210.511719 L 245.761719 205.734375 C 245.761719 205.734375 233.933594 205.628906 229.265625 195.207031 C 229.265625 195.207031 236.648438 202.914062 250.320312 202.261719 C 263.996094 201.613281 309.148438 190.976562 309.148438 190.976562 C 309.148438 190.976562 319.78125 189.023438 318.589844 178.820312 L 308.0625 175.46875 L 301.546875 167.816406 L 300.410156 174.65625 L 289.296875 172.984375 L 284.128906 168.265625 L 281.6875 171.847656 L 269.3125 172.089844 C 269.3125 172.089844 290.027344 174.941406 306.066406 180.433594 C 306.066406 180.433594 308.710938 184.707031 300.898438 184.136719 L 295.890625 177.828125 L 293.40625 184.300781 L 287.222656 182.875 L 282.011719 187.109375 L 274.847656 178.804688 L 272 187.148438 C 272 187.148438 260.683594 190.160156 252.625 186.253906 C 244.566406 182.347656 246.195312 179.742188 246.195312 179.742188 C 246.195312 179.742188 234.3125 174.695312 230.160156 180.71875 C 230.160156 180.71875 231.300781 172.171875 247.824219 178.441406 C 247.824219 178.441406 261.824219 181.289062 270.128906 166.800781 L 278.757812 166.800781 L 287.304688 156.300781 C 287.304688 156.300781 287.546875 154.347656 293.324219 153.449219 C 299.105469 152.554688 303.257812 151.417969 303.257812 151.417969 L 304.234375 143.277344 L 308.304688 147.996094 L 306.839844 133.425781 L 294.222656 132.125 L 286.242188 142.949219 L 265.894531 151.335938 L 253.4375 148.078125 L 248.472656 155.566406 L 239.277344 153.613281 L 232.113281 162.324219 L 226.660156 159.882812 L 219.171875 164.523438 L 207.203125 162.976562 L 199.550781 158.253906 L 193.933594 160.453125 L 187.585938 156.300781 L 180.75 159.636719 L 174.398438 156.625 L 168.863281 160.207031 L 161.539062 157.277344 L 156.492188 161.675781 L 150.875 158.824219 L 145.746094 163.058594 L 139.886719 160.78125 L 134.59375 164.929688 C 134.59375 164.929688 108.21875 172.417969 104.558594 174.535156 C 104.558594 174.535156 61.089844 177.792969 42.042969 211.65625 C 42.042969 211.65625 34.714844 226.796875 51.484375 243.402344 C 51.484375 243.402344 70.207031 266.355469 120.835938 262.449219 C 120.835938 262.449219 56.042969 274.171875 38.296875 229.5625 C 38.296875 229.5625 32.761719 255.121094 64.019531 272.867188 C 95.277344 290.613281 149.816406 271.238281 169.027344 257.5625 C 188.238281 243.890625 189.703125 245.027344 215.097656 249.261719 C 215.097656 249.261719 201.585938 230.539062 174.234375 241.445312 L 171.140625 238.027344 L 162.1875 245.515625 L 156.054688 244.105469 L 146.449219 251.917969 L 141.78125 247.957031 L 129.136719 253.980469 L 123.820312 250.238281 L 112.640625 254.359375 C 112.640625 254.359375 75.46875 249.585938 72.320312 226.46875 C 69.171875 203.347656 109.65625 191.734375 112.152344 191.195312 C 112.152344 191.195312 64.941406 206.171875 77.640625 232.21875 C 77.640625 232.21875 94.570312 218.761719 114.324219 220.28125 C 114.324219 220.28125 117.578125 203.785156 144.496094 198.140625 C 144.496094 198.140625 116.058594 208.886719 117.46875 223.972656 C 118.882812 239.058594 134.183594 235.042969 146.230469 232.328125 C 146.230469 232.328125 157.738281 233.847656 160.882812 233.738281 C 164.03125 233.632812 165.769531 232.328125 171.84375 232.4375 L 170.21875 229.398438 C 170.21875 229.398438 159.691406 227.226562 172.496094 228.640625 C 172.496094 228.640625 175.332031 226.265625 166.621094 223.660156 C 166.621094 223.660156 165.644531 220.078125 173.011719 224.59375 C 173.011719 224.59375 173.90625 219.628906 166.09375 216.808594 L 150.140625 217.566406 C 150.140625 217.566406 170.652344 196.621094 146.882812 190.867188 C 146.882812 190.867188 159.90625 189.890625 161.210938 202.589844 C 161.210938 202.589844 162.402344 207.148438 155.785156 215.070312 L 166.09375 214.417969 L 172.929688 217.894531 C 172.929688 217.894531 177.054688 205.300781 195.941406 203.566406 C 195.941406 203.566406 167.484375 211.125 178.296875 228.964844 L 217.429688 239.164062 Z M 223.242188 249.421875 " fill-opacity="1" fill-rule="nonzero"/></g><g clip-path="url(#a9dbeac514)"><path fill="#669639" d="M 104.289062 171.65625 C 104.289062 171.65625 123.28125 162.429688 132.5625 163.082031 C 132.5625 163.082031 116.824219 153.75 104.289062 171.65625 Z M 104.289062 171.65625 " fill-opacity="1" fill-rule="nonzero"/></g><g clip-path="url(#2ec2465d32)"><g clip-path="url(#df33bfc012)"><g clip-path="url(#db23747cff)"><path fill="#669639" d="M 228.324219 227.613281 L 238.53125 231.035156 L 238.300781 222.996094 L 256.871094 230.511719 L 256.695312 224.378906 L 245.722656 217.421875 L 267.765625 223.753906 L 264.667969 216.3125 L 253.664062 210.183594 L 264.359375 210.960938 L 257.097656 204.050781 C 257.097656 204.050781 232.167969 200.757812 225.320312 196.964844 C 218.476562 193.171875 200.933594 180.75 200.332031 178.976562 L 217.628906 187.695312 L 227.042969 180.277344 L 221.605469 168.058594 L 231.109375 178.238281 L 255.253906 171.5 C 255.253906 171.5 240.277344 171.789062 233.992188 158.769531 C 233.992188 158.769531 243.613281 168.257812 260.902344 166.9375 C 278.1875 165.617188 334.960938 150.523438 334.960938 150.523438 C 334.960938 150.523438 348.351562 147.664062 346.472656 134.792969 L 333.023438 130.933594 L 324.503906 121.480469 L 323.308594 130.175781 L 309.183594 128.46875 L 302.46875 122.675781 L 299.503906 127.300781 L 283.851562 128.054688 C 283.851562 128.054688 310.179688 130.914062 330.679688 137.289062 C 330.679688 137.289062 334.179688 142.605469 324.269531 142.164062 L 317.703125 134.359375 L 314.792969 142.640625 L 306.910156 141.0625 L 300.46875 146.609375 L 291.101562 136.355469 L 287.796875 147.023438 C 287.796875 147.023438 273.582031 151.242188 263.238281 146.589844 C 252.898438 141.933594 254.863281 138.578125 254.863281 138.578125 C 254.863281 138.578125 239.636719 132.621094 234.601562 140.394531 C 234.601562 140.394531 235.734375 129.535156 256.878906 136.871094 C 256.878906 136.871094 274.703125 139.972656 284.691406 121.328125 L 295.613281 121.019531 L 306.054688 107.417969 C 306.054688 107.417969 306.292969 104.933594 313.574219 103.59375 C 320.859375 102.25 326.074219 100.65625 326.074219 100.65625 L 327.015625 90.316406 L 332.339844 96.148438 L 329.957031 77.753906 L 313.9375 76.5625 L 304.230469 90.554688 L 278.773438 101.902344 L 262.886719 98.234375 L 256.875 107.890625 L 245.160156 105.753906 L 236.40625 117.039062 L 229.414062 114.144531 L 220.101562 120.285156 L 204.898438 118.761719 L 195.042969 113.0625 L 188.011719 116.046875 L 179.824219 111.023438 L 171.289062 115.492188 L 163.140625 111.910156 L 156.265625 116.644531 L 146.882812 113.203125 L 140.65625 118.949219 L 133.441406 115.542969 L 127.101562 121.089844 L 119.601562 118.414062 L 113.050781 123.863281 C 113.050781 123.863281 79.9375 134.296875 75.375 137.105469 C 75.375 137.105469 20.46875 142.800781 -2.417969 186.355469 C -2.417969 186.355469 -11.148438 205.785156 10.679688 226.199219 C 10.679688 226.199219 35.210938 254.582031 99.164062 247.804688 C 99.164062 247.804688 17.5625 264.988281 -6.511719 209.160156 C -6.511719 209.160156 -12.597656 241.714844 27.613281 263.046875 C 67.824219 284.382812 136.164062 257.886719 159.988281 239.882812 C 183.8125 221.875 185.707031 223.265625 218.011719 227.707031 C 218.011719 227.707031 200.226562 204.492188 166 219.289062 L 161.960938 215.074219 L 150.894531 224.878906 L 143.082031 223.3125 L 131.203125 233.550781 L 125.152344 228.707031 L 109.363281 236.789062 L 102.496094 232.238281 L 88.496094 237.863281 C 88.496094 237.863281 41.265625 233.164062 36.445312 204.011719 C 31.625 174.859375 82.453125 158.695312 85.59375 157.917969 C 85.59375 157.917969 26.367188 178.585938 43.386719 211.101562 C 43.386719 211.101562 64.332031 193.453125 89.390625 194.660156 C 89.390625 194.660156 92.917969 173.660156 126.785156 165.542969 C 126.785156 165.542969 91.175781 180.171875 93.507812 199.21875 C 95.839844 218.265625 115.070312 212.628906 130.222656 208.757812 C 130.222656 208.757812 144.839844 210.265625 148.820312 210.015625 C 152.800781 209.765625 154.953125 208.054688 162.648438 207.972656 L 160.480469 204.183594 C 160.480469 204.183594 147.074219 201.816406 163.335938 203.140625 C 163.335938 203.140625 166.839844 200.03125 155.71875 197.050781 C 155.71875 197.050781 154.355469 192.550781 163.84375 198.003906 C 163.84375 198.003906 164.796875 191.683594 154.800781 188.394531 L 134.632812 189.933594 C 134.632812 189.933594 159.84375 162.675781 129.546875 156.25 C 129.546875 156.25 146 154.542969 148.105469 170.570312 C 148.105469 170.570312 149.78125 176.300781 141.6875 186.566406 L 154.714844 185.371094 L 163.496094 189.519531 C 163.496094 189.519531 168.261719 173.433594 192.105469 170.554688 C 192.105469 170.554688 156.355469 181.148438 170.691406 203.339844 L 220.597656 214.839844 Z M 228.324219 227.613281 " fill-opacity="1" fill-rule="nonzero"/></g></g></g><g clip-path="url(#ab8ba7d098)"><g clip-path="url(#54f0cb1b12)"><g clip-path="url(#2156900639)"><path fill="#ffffff" d="M 253.945312 115.3125 C 255.945312 114.5625 259.03125 114.871094 261.066406 115.398438 C 262.269531 115.710938 261.472656 117.324219 260.996094 117.964844 C 259.972656 119.332031 258.171875 120.113281 256.625 120.6875 C 255.40625 121.136719 251.867188 122.617188 250.9375 120.921875 C 250.132812 119.453125 251.347656 117.453125 252.328125 116.390625 C 252.796875 115.882812 253.34375 115.539062 253.945312 115.3125 Z M 253.945312 115.3125 " fill-opacity="1" fill-rule="nonzero"/></g></g></g><g fill="#ffffff" fill-opacity="1"><g transform="translate(92.431067, 194.122209)"><g><path d="M 22.25 -36.328125 C 25.269531 -36.328125 27.976562 -35.660156 30.375 -34.328125 C 32.769531 -32.992188 34.648438 -31.15625 36.015625 -28.8125 C 37.378906 -26.46875 38.0625 -23.960938 38.0625 -21.296875 C 38.0625 -17.628906 37.070312 -14.148438 35.09375 -10.859375 C 33.113281 -7.566406 30.4375 -4.929688 27.0625 -2.953125 C 23.695312 -0.984375 20.179688 0 16.515625 0 L 3.078125 0 L 8.8125 -36.328125 Z M 13.78125 -8 L 15.609375 -8 C 19.429688 -8 22.472656 -9.128906 24.734375 -11.390625 C 26.992188 -13.648438 28.125 -16.582031 28.125 -20.1875 C 28.125 -22.625 27.363281 -24.585938 25.84375 -26.078125 C 24.320312 -27.578125 22.050781 -28.328125 19.03125 -28.328125 L 17 -28.328125 Z M 13.78125 -8 "/></g></g></g><g fill="#ffffff" fill-opacity="1"><g transform="translate(123.54344, 194.122209)"><g><path d="M 29.8125 -36.328125 L 37.765625 0 L 27.703125 0 L 26.34375 -6.3125 L 13.34375 -6.3125 L 9.828125 0 L -0.1875 0 L 19.515625 -36.328125 Z M 17.09375 -13.53125 L 24.953125 -13.53125 L 22.9375 -25.09375 L 22.828125 -25.09375 Z M 17.09375 -13.53125 "/></g></g></g><g fill="#ffffff" fill-opacity="1"><g transform="translate(156.052564, 194.122209)"><g><path d="M 31.078125 -36.328125 L 29.8125 -28.328125 L 22.015625 -28.328125 L 17.53125 0 L 8.09375 0 L 12.578125 -28.328125 L 4.765625 -28.328125 L 6.015625 -36.328125 Z M 31.078125 -36.328125 "/></g></g></g><g fill="#ffffff" fill-opacity="1"><g transform="translate(176.616994, 194.122209)"><g><path d="M 29.8125 -36.328125 L 37.765625 0 L 27.703125 0 L 26.34375 -6.3125 L 13.34375 -6.3125 L 9.828125 0 L -0.1875 0 L 19.515625 -36.328125 Z M 17.09375 -13.53125 L 24.953125 -13.53125 L 22.9375 -25.09375 L 22.828125 -25.09375 Z M 17.09375 -13.53125 "/></g></g></g><path stroke-linecap="butt" transform="matrix(0.903363, 0, 0, 0.903363, 86.084406, 185.915217)" fill="none" stroke-linejoin="miter" d="M 35.571894 26.868794 C 34.53843 22.596565 31.926662 20.464775 27.732267 20.464775 C 25.526967 20.464775 23.455714 21.182578 21.522833 22.62251 C 19.585628 24.066765 18.046242 25.969378 16.900351 28.338994 C 15.763107 30.699963 15.192324 33.108497 15.192324 35.564597 C 15.192324 38.621748 15.992286 41.082172 17.59221 42.950191 C 19.196457 44.813886 21.349869 45.747896 24.048118 45.747896 C 26.504218 45.747896 28.566822 45.125223 30.231608 43.884201 C 31.909366 42.63453 33.012016 40.926504 33.539559 38.755796 L 25.012397 38.755796 L 26.339901 30.552943 L 47.091346 30.552943 C 46.165985 36.169973 44.604978 40.606519 42.421298 43.858256 C 40.233294 47.105669 37.45721 49.661223 34.09737 51.529242 C 30.741854 53.392937 26.910685 54.326947 22.616835 54.326947 C 17.068991 54.326947 12.615149 52.76594 9.255309 49.639602 C 5.899793 46.517589 4.217711 42.336166 4.217711 37.103983 C 4.217711 32.520417 5.29874 28.256836 7.4608 24.317564 C 9.631507 20.369644 12.667038 17.238982 16.576042 14.929903 C 20.489369 12.612175 24.886997 11.453312 29.764603 11.453312 C 38.261496 11.453312 43.718534 15.202322 46.131392 22.700344 Z M 72.253392 12.793788 L 81.057297 52.999443 L 69.90972 52.999443 L 68.426547 46.007343 L 54.027232 46.007343 L 50.135526 52.999443 L 39.039837 52.999443 L 60.850691 12.793788 Z M 58.178386 38.012048 L 66.878513 38.012048 L 64.638619 25.216981 L 64.53484 25.216981 Z M 109.644045 12.793788 L 108.251679 21.649583 L 99.616414 21.649583 L 94.65665 52.999443 L 84.200932 52.999443 L 89.16502 21.649583 L 80.529755 21.649583 L 81.909149 12.793788 Z M 147.454138 29.004909 C 147.454138 32.874995 146.334191 36.892101 144.094298 41.060551 C 141.854404 45.220353 138.689149 48.467766 134.602857 50.811439 C 130.512241 53.155111 126.123261 54.326947 121.427268 54.326947 C 115.775645 54.326947 111.187755 52.666485 107.663599 49.341238 C 104.14809 46.015991 102.388174 41.639983 102.388174 36.204566 C 102.388174 31.724779 103.568659 27.595246 105.929627 23.807318 C 108.299244 20.015066 111.520713 17.009804 115.594032 14.787207 C 119.663028 12.56461 123.866071 11.453312 128.194514 11.453312 C 131.649484 11.453312 134.879601 12.201384 137.880539 13.693205 C 140.885802 15.185026 143.229474 17.260603 144.911556 19.915612 C 146.60661 22.561972 147.454138 25.593179 147.454138 29.004909 Z M 123.027192 44.199861 C 125.448698 44.199861 127.679944 43.533947 129.720927 42.206443 C 131.766236 40.87029 133.396428 39.144967 134.602857 37.039121 C 135.809286 34.920303 136.410339 32.82743 136.410339 30.760501 C 136.410339 28.200623 135.441736 26.029915 133.508855 24.252702 C 131.57165 22.471166 129.249599 21.584721 126.5427 21.584721 C 124.449827 21.584721 122.369926 22.155505 120.307321 23.301396 C 118.249041 24.43864 116.584255 25.965053 115.317289 27.884962 C 114.05897 29.800547 113.431973 31.932337 113.431973 34.276009 C 113.431973 37.160196 114.327065 39.534137 116.112926 41.397833 C 117.91176 43.265852 120.216515 44.199861 123.027192 44.199861 Z M 165.312747 12.793788 C 168.940683 12.793788 171.850814 13.649964 174.038818 15.357991 C 176.222498 17.061693 177.3165 19.509144 177.3165 22.700344 C 177.3165 26.120722 176.300332 29.138956 174.272321 31.750724 C 172.248633 34.362492 169.654162 35.953767 166.484583 36.515903 L 176.512214 52.999443 L 163.505266 52.999443 L 156.093726 37.532071 L 155.976975 37.532071 L 153.529524 52.999443 L 143.073806 52.999443 L 149.43026 12.793788 Z M 157.045033 30.81239 L 158.489288 30.81239 C 160.945387 30.81239 162.848 30.29782 164.1928 29.264356 C 165.54625 28.230892 166.225136 26.721774 166.225136 24.73268 C 166.225136 22.103616 164.054429 20.789084 159.713014 20.789084 L 158.644956 20.789084 Z M 157.045033 30.81239 " stroke="#ffffff" stroke-width="13.999991" stroke-opacity="1" stroke-miterlimit="4"/><g fill="#ffffff" fill-opacity="1"><g transform="translate(86.084406, 233.793472)"><g><path d="M 32.125 -23.609375 C 31.195312 -27.460938 28.835938 -29.390625 25.046875 -29.390625 C 23.054688 -29.390625 21.1875 -28.738281 19.4375 -27.4375 C 17.6875 -26.132812 16.296875 -24.414062 15.265625 -22.28125 C 14.242188 -20.144531 13.734375 -17.96875 13.734375 -15.75 C 13.734375 -12.988281 14.453125 -10.765625 15.890625 -9.078125 C 17.335938 -7.390625 19.28125 -6.546875 21.71875 -6.546875 C 23.9375 -6.546875 25.800781 -7.109375 27.3125 -8.234375 C 28.820312 -9.359375 29.816406 -10.898438 30.296875 -12.859375 L 22.59375 -12.859375 L 23.796875 -20.28125 L 42.53125 -20.28125 C 41.695312 -15.207031 40.289062 -11.203125 38.3125 -8.265625 C 36.34375 -5.328125 33.835938 -3.015625 30.796875 -1.328125 C 27.765625 0.359375 24.304688 1.203125 20.421875 1.203125 C 15.410156 1.203125 11.390625 -0.207031 8.359375 -3.03125 C 5.328125 -5.863281 3.8125 -9.640625 3.8125 -14.359375 C 3.8125 -18.492188 4.789062 -22.34375 6.75 -25.90625 C 8.707031 -29.476562 11.453125 -32.304688 14.984375 -34.390625 C 18.515625 -36.484375 22.476562 -37.53125 26.875 -37.53125 C 34.550781 -37.53125 39.484375 -34.140625 41.671875 -27.359375 Z M 32.125 -23.609375 "/></g></g></g><g fill="#ffffff" fill-opacity="1"><g transform="translate(121.540402, 233.793472)"><g><path d="M 29.8125 -36.328125 L 37.765625 0 L 27.703125 0 L 26.34375 -6.3125 L 13.34375 -6.3125 L 9.828125 0 L -0.1875 0 L 19.515625 -36.328125 Z M 17.09375 -13.53125 L 24.953125 -13.53125 L 22.9375 -25.09375 L 22.828125 -25.09375 Z M 17.09375 -13.53125 "/></g></g></g><g fill="#ffffff" fill-opacity="1"><g transform="translate(154.057752, 233.793472)"><g><path d="M 31.078125 -36.328125 L 29.8125 -28.328125 L 22.015625 -28.328125 L 17.53125 0 L 8.09375 0 L 12.578125 -28.328125 L 4.765625 -28.328125 L 6.015625 -36.328125 Z M 31.078125 -36.328125 "/></g></g></g><g fill="#ffffff" fill-opacity="1"><g transform="translate(174.627799, 233.793472)"><g><path d="M 44.65625 -21.671875 C 44.65625 -18.171875 43.640625 -14.539062 41.609375 -10.78125 C 39.585938 -7.03125 36.726562 -4.09375 33.03125 -1.96875 C 29.34375 0.144531 25.378906 1.203125 21.140625 1.203125 C 16.035156 1.203125 11.894531 -0.296875 8.71875 -3.296875 C 5.539062 -6.296875 3.953125 -10.253906 3.953125 -15.171875 C 3.953125 -19.222656 5.019531 -22.957031 7.15625 -26.375 C 9.289062 -29.789062 12.195312 -32.503906 15.875 -34.515625 C 19.550781 -36.523438 23.347656 -37.53125 27.265625 -37.53125 C 30.378906 -37.53125 33.289062 -36.851562 36 -35.5 C 38.71875 -34.15625 40.835938 -32.285156 42.359375 -29.890625 C 43.890625 -27.492188 44.65625 -24.753906 44.65625 -21.671875 Z M 22.59375 -7.953125 C 24.78125 -7.953125 26.796875 -8.550781 28.640625 -9.75 C 30.484375 -10.957031 31.953125 -12.515625 33.046875 -14.421875 C 34.140625 -16.335938 34.6875 -18.226562 34.6875 -20.09375 C 34.6875 -22.40625 33.8125 -24.363281 32.0625 -25.96875 C 30.3125 -27.570312 28.210938 -28.375 25.765625 -28.375 C 23.878906 -28.375 22.003906 -27.859375 20.140625 -26.828125 C 18.273438 -25.804688 16.769531 -24.425781 15.625 -22.6875 C 14.488281 -20.957031 13.921875 -19.03125 13.921875 -16.90625 C 13.921875 -14.300781 14.726562 -12.15625 16.34375 -10.46875 C 17.96875 -8.789062 20.050781 -7.953125 22.59375 -7.953125 Z M 22.59375 -7.953125 "/></g></g></g><g fill="#ffffff" fill-opacity="1"><g transform="translate(212.251655, 233.793472)"><g><path d="M 23.171875 -36.328125 C 26.441406 -36.328125 29.066406 -35.554688 31.046875 -34.015625 C 33.023438 -32.472656 34.015625 -30.253906 34.015625 -27.359375 C 34.015625 -24.273438 33.097656 -21.550781 31.265625 -19.1875 C 29.429688 -16.832031 27.085938 -15.398438 24.234375 -14.890625 L 33.28125 0 L 21.53125 0 L 14.84375 -13.96875 L 14.734375 -13.96875 L 12.53125 0 L 3.078125 0 L 8.8125 -36.328125 Z M 15.703125 -20.046875 L 17 -20.046875 C 19.21875 -20.046875 20.9375 -20.507812 22.15625 -21.4375 C 23.375 -22.363281 23.984375 -23.726562 23.984375 -25.53125 C 23.984375 -27.90625 22.023438 -29.09375 18.109375 -29.09375 L 17.15625 -29.09375 Z M 15.703125 -20.046875 "/></g></g></g><path stroke-linecap="butt" transform="matrix(0.903363, 0, 0, 0.903363, 94.949413, 150.479741)" fill="none" stroke-linejoin="miter" d="M 24.634289 12.795873 C 27.976832 12.795873 30.969122 13.530973 33.619807 15.005497 C 36.274816 16.484346 38.359041 18.516682 39.868158 21.115477 C 41.377276 23.709948 42.133996 26.481708 42.133996 29.435081 C 42.133996 33.48678 41.039994 37.335246 38.85199 40.980478 C 36.663986 44.621385 33.706289 47.531517 29.970251 49.719521 C 26.238537 51.907525 22.34683 53.001527 18.295131 53.001527 L 3.411515 53.001527 L 9.763645 12.795873 Z M 15.246627 44.145732 L 17.278963 44.145732 C 21.512275 44.145732 24.880763 42.896062 27.380104 40.396722 C 29.888093 37.888733 31.142087 34.64132 31.142087 30.658807 C 31.142087 27.947584 30.298884 25.772553 28.60383 24.120739 C 26.921747 22.47325 24.409435 21.647344 21.066891 21.647344 L 18.826997 21.647344 Z M 67.456035 12.795873 L 76.255616 53.001527 L 65.112362 53.001527 L 63.62919 46.009427 L 49.225551 46.009427 L 45.333844 53.001527 L 34.24248 53.001527 L 56.04901 12.795873 Z M 53.381029 38.014132 L 62.076831 38.014132 L 59.836938 25.214741 L 59.733159 25.214741 Z M 104.842364 12.795873 L 103.449997 21.647344 L 94.819057 21.647344 L 89.859293 53.001527 L 79.403574 53.001527 L 84.363338 21.647344 L 75.732398 21.647344 L 77.111791 12.795873 Z M 126.220806 12.795873 L 135.024711 53.001527 L 123.877133 53.001527 L 122.393961 46.009427 L 107.994646 46.009427 L 104.098615 53.001527 L 93.007251 53.001527 L 114.818105 12.795873 Z M 112.1458 38.014132 L 120.845926 38.014132 L 118.606033 25.214741 L 118.502254 25.214741 Z M 112.1458 38.014132 " stroke="#ffffff" stroke-width="13.999991" stroke-opacity="1" stroke-miterlimit="4"/><g fill="#002144" fill-opacity="1"><g transform="translate(94.949413, 198.357995)"><g><path d="M 22.25 -36.328125 C 25.269531 -36.328125 27.976562 -35.660156 30.375 -34.328125 C 32.769531 -32.992188 34.648438 -31.15625 36.015625 -28.8125 C 37.378906 -26.46875 38.0625 -23.960938 38.0625 -21.296875 C 38.0625 -17.628906 37.070312 -14.148438 35.09375 -10.859375 C 33.113281 -7.566406 30.4375 -4.929688 27.0625 -2.953125 C 23.695312 -0.984375 20.179688 0 16.515625 0 L 3.078125 0 L 8.8125 -36.328125 Z M 13.78125 -8 L 15.609375 -8 C 19.429688 -8 22.472656 -9.128906 24.734375 -11.390625 C 26.992188 -13.648438 28.125 -16.582031 28.125 -20.1875 C 28.125 -22.625 27.363281 -24.585938 25.84375 -26.078125 C 24.320312 -27.578125 22.050781 -28.328125 19.03125 -28.328125 L 17 -28.328125 Z M 13.78125 -8 "/></g></g></g><g fill="#002144" fill-opacity="1"><g transform="translate(126.069704, 198.357995)"><g><path d="M 29.8125 -36.328125 L 37.765625 0 L 27.703125 0 L 26.34375 -6.3125 L 13.34375 -6.3125 L 9.828125 0 L -0.1875 0 L 19.515625 -36.328125 Z M 17.09375 -13.53125 L 24.953125 -13.53125 L 22.9375 -25.09375 L 22.828125 -25.09375 Z M 17.09375 -13.53125 "/></g></g></g><g fill="#002144" fill-opacity="1"><g transform="translate(158.587054, 198.357995)"><g><path d="M 31.078125 -36.328125 L 29.8125 -28.328125 L 22.015625 -28.328125 L 17.53125 0 L 8.09375 0 L 12.578125 -28.328125 L 4.765625 -28.328125 L 6.015625 -36.328125 Z M 31.078125 -36.328125 "/></g></g></g><g fill="#002144" fill-opacity="1"><g transform="translate(179.157101, 198.357995)"><g><path d="M 29.8125 -36.328125 L 37.765625 0 L 27.703125 0 L 26.34375 -6.3125 L 13.34375 -6.3125 L 9.828125 0 L -0.1875 0 L 19.515625 -36.328125 Z M 17.09375 -13.53125 L 24.953125 -13.53125 L 22.9375 -25.09375 L 22.828125 -25.09375 Z M 17.09375 -13.53125 "/></g></g></g><path stroke-linecap="butt" transform="matrix(0.75, 0, 0, 0.75, 86.083307, 186.016188)" fill="none" stroke-linejoin="miter" d="M 45.441011 32.514877 C 44.196219 27.369043 41.045177 24.796126 35.993093 24.796126 C 33.336843 24.796126 30.842051 25.66071 28.508718 27.400293 C 26.180593 29.134668 24.321217 31.431543 22.941009 34.28571 C 21.571217 37.12946 20.888926 40.035711 20.888926 42.994044 C 20.888926 46.676336 21.847259 49.639878 23.774342 51.889878 C 25.706634 54.13467 28.300384 55.25967 31.555593 55.25967 C 34.513926 55.25967 36.998302 54.514878 39.008718 53.020086 C 41.024344 51.50967 42.352469 49.452378 42.993094 46.837794 L 32.717051 46.837794 L 34.31601 36.952377 L 59.32122 36.952377 C 58.206636 43.718002 56.326428 49.066961 53.691011 52.988836 C 51.055594 56.900295 47.711844 59.97842 43.664969 62.22842 C 39.618093 64.478421 35.008718 65.598212 29.826426 65.598212 C 23.144134 65.598212 17.77955 63.718004 13.732675 59.952379 C 9.6858 56.186753 7.659758 51.150295 7.659758 44.843003 C 7.659758 39.322169 8.961841 34.186752 11.566008 29.436752 C 14.180592 24.681543 17.84205 20.910709 22.550384 18.129459 C 27.269134 15.332584 32.56601 13.936751 38.44101 13.936751 C 48.680594 13.936751 55.253511 18.457584 58.16497 27.494043 Z M 89.633722 15.556542 L 100.237889 63.999254 L 86.810805 63.999254 L 85.024346 55.577378 L 67.670179 55.577378 L 62.97747 63.999254 L 49.612886 63.999254 L 75.888929 15.556542 Z M 72.675387 45.941961 L 83.154555 45.941961 L 80.456638 30.520085 L 80.331638 30.520085 Z M 134.6806 15.556542 L 133.003516 26.22321 L 122.602474 26.22321 L 116.623307 63.999254 L 104.024348 63.999254 L 110.003515 26.22321 L 99.602472 26.22321 L 101.263931 15.556542 Z M 180.232686 35.087794 C 180.232686 39.749252 178.883728 44.593003 176.185811 49.613836 C 173.487894 54.624253 169.675394 58.54092 164.74831 61.363837 C 159.821226 64.186754 154.529559 65.598212 148.873309 65.598212 C 142.060809 65.598212 136.534767 63.598212 132.289975 59.593004 C 128.055599 55.587795 125.935807 50.311753 125.935807 43.759669 C 125.935807 38.363835 127.357683 33.384668 130.201433 28.827377 C 133.0556 24.25446 136.941017 20.629459 141.842059 17.952376 C 146.748309 15.275292 151.810809 13.936751 157.02956 13.936751 C 161.191018 13.936751 165.081643 14.837792 168.701435 16.634667 C 172.321227 18.436751 175.144144 20.936751 177.175394 24.134668 C 179.211853 27.327376 180.232686 30.97321 180.232686 35.087794 Z M 150.800392 53.395086 C 153.722268 53.395086 156.409768 52.593003 158.868101 50.994045 C 161.331643 49.38467 163.295185 47.306544 164.74831 44.764878 C 166.201435 42.212794 166.930602 39.691961 166.930602 37.202377 C 166.930602 34.119044 165.763935 31.50446 163.430602 29.358627 C 161.097268 27.218001 158.300393 26.145085 155.039976 26.145085 C 152.519143 26.145085 150.013934 26.832585 147.524351 28.212793 C 145.045184 29.582585 143.039975 31.426335 141.513933 33.738835 C 139.998308 36.046127 139.237892 38.613835 139.237892 41.441961 C 139.237892 44.910711 140.316017 47.775294 142.472267 50.020086 C 144.633725 52.270086 147.414976 53.395086 150.800392 53.395086 Z M 201.748312 15.556542 C 206.118104 15.556542 209.623313 16.582584 212.25873 18.645084 C 214.894147 20.697168 216.211855 23.645085 216.211855 27.494043 C 216.211855 31.613835 214.987897 35.249252 212.53998 38.395085 C 210.10248 41.546127 206.977479 43.457586 203.159771 44.139878 L 215.237897 63.999254 L 199.566021 63.999254 L 190.638937 45.363836 L 190.498312 45.363836 L 187.550395 63.999254 L 174.951436 63.999254 L 182.607686 15.556542 Z M 191.78477 37.264877 L 193.529562 37.264877 C 196.487895 37.264877 198.779562 36.645085 200.399354 35.400294 C 202.029562 34.155502 202.847271 32.337793 202.847271 29.94196 C 202.847271 26.770085 200.232687 25.186751 195.00352 25.186751 L 193.717062 25.186751 Z M 236.118106 14.270084 C 241.305607 14.270084 246.164982 15.598209 250.706649 18.254459 L 244.149357 28.009668 C 241.878523 25.869043 239.269148 24.796126 236.321231 24.796126 C 234.769148 24.796126 233.362898 25.233626 232.097273 26.113835 C 230.842064 26.988835 230.217064 28.072168 230.217064 29.358627 C 230.217064 30.301335 230.664981 31.12946 231.566023 31.837793 C 232.467064 32.551335 234.112898 33.244043 236.508731 33.926335 C 239.758732 34.91071 242.112898 35.858627 243.566024 36.780502 C 245.029565 37.702377 246.164982 38.837794 246.972274 40.186752 C 247.789982 41.535711 248.196232 43.218002 248.196232 45.238836 C 248.196232 48.145086 247.446232 51.22842 245.95144 54.494045 C 244.456649 57.744045 242.003523 60.337795 238.592065 62.275295 C 235.185815 64.197171 231.149356 65.202379 226.482689 65.285712 C 220.487897 65.285712 215.092063 63.44717 210.28998 59.764879 L 217.28998 49.598211 C 220.638939 52.94717 224.086856 54.619045 227.644147 54.619045 C 229.607689 54.619045 231.269148 54.10342 232.618106 53.082586 C 233.967065 52.046128 234.63894 50.738836 234.63894 49.160711 C 234.63894 47.098211 232.586856 45.514878 228.477481 44.405503 C 223.508731 43.035711 220.28998 41.572169 218.826439 40.014877 C 217.373313 38.44196 216.644147 36.353419 216.644147 33.738835 C 216.644147 28.25446 218.519147 23.645085 222.263939 19.900293 C 226.019147 16.145084 230.633731 14.270084 236.118106 14.270084 Z M 236.118106 14.270084 " stroke="#ffffff" stroke-width="7.792337" stroke-opacity="1" stroke-miterlimit="4"/><g fill="#002144" fill-opacity="1"><g transform="translate(88.0169, 234.016185)"><g><path d="M 32.140625 -23.609375 C 31.210938 -27.460938 28.851562 -29.390625 25.0625 -29.390625 C 23.0625 -29.390625 21.1875 -28.738281 19.4375 -27.4375 C 17.6875 -26.132812 16.296875 -24.414062 15.265625 -22.28125 C 14.242188 -20.144531 13.734375 -17.96875 13.734375 -15.75 C 13.734375 -12.988281 14.453125 -10.765625 15.890625 -9.078125 C 17.335938 -7.390625 19.285156 -6.546875 21.734375 -6.546875 C 23.953125 -6.546875 25.816406 -7.109375 27.328125 -8.234375 C 28.835938 -9.359375 29.832031 -10.898438 30.3125 -12.859375 L 22.59375 -12.859375 L 23.796875 -20.28125 L 42.546875 -20.28125 C 41.710938 -15.207031 40.304688 -11.203125 38.328125 -8.265625 C 36.359375 -5.328125 33.851562 -3.015625 30.8125 -1.328125 C 27.78125 0.359375 24.320312 1.203125 20.4375 1.203125 C 15.425781 1.203125 11.398438 -0.207031 8.359375 -3.03125 C 5.328125 -5.863281 3.8125 -9.640625 3.8125 -14.359375 C 3.8125 -18.503906 4.789062 -22.359375 6.75 -25.921875 C 8.707031 -29.492188 11.453125 -32.320312 14.984375 -34.40625 C 18.515625 -36.488281 22.484375 -37.53125 26.890625 -37.53125 C 34.566406 -37.53125 39.5 -34.144531 41.6875 -27.375 Z M 32.140625 -23.609375 "/></g></g></g><g fill="#002144" fill-opacity="1"><g transform="translate(123.481566, 234.016185)"><g><path d="M 29.828125 -36.328125 L 37.78125 0 L 27.703125 0 L 26.359375 -6.3125 L 13.34375 -6.3125 L 9.828125 0 L -0.1875 0 L 19.515625 -36.328125 Z M 17.109375 -13.546875 L 24.96875 -13.546875 L 22.9375 -25.109375 L 22.84375 -25.109375 Z M 17.109375 -13.546875 "/></g></g></g><g fill="#002144" fill-opacity="1"><g transform="translate(156.006795, 234.016185)"><g><path d="M 31.078125 -36.328125 L 29.828125 -28.328125 L 22.015625 -28.328125 L 17.546875 0 L 8.09375 0 L 12.578125 -28.328125 L 4.765625 -28.328125 L 6.015625 -36.328125 Z M 31.078125 -36.328125 "/></g></g></g><g fill="#002144" fill-opacity="1"><g transform="translate(176.581519, 234.016185)"><g><path d="M 44.671875 -21.6875 C 44.671875 -18.1875 43.65625 -14.554688 41.625 -10.796875 C 39.601562 -7.035156 36.742188 -4.09375 33.046875 -1.96875 C 29.359375 0.144531 25.394531 1.203125 21.15625 1.203125 C 16.050781 1.203125 11.90625 -0.296875 8.71875 -3.296875 C 5.539062 -6.304688 3.953125 -10.265625 3.953125 -15.171875 C 3.953125 -19.222656 5.019531 -22.957031 7.15625 -26.375 C 9.289062 -29.800781 12.195312 -32.515625 15.875 -34.515625 C 19.550781 -36.523438 23.351562 -37.53125 27.28125 -37.53125 C 30.394531 -37.53125 33.304688 -36.851562 36.015625 -35.5 C 38.734375 -34.15625 40.851562 -32.285156 42.375 -29.890625 C 43.90625 -27.503906 44.671875 -24.769531 44.671875 -21.6875 Z M 22.59375 -7.953125 C 24.78125 -7.953125 26.796875 -8.550781 28.640625 -9.75 C 30.492188 -10.957031 31.960938 -12.515625 33.046875 -14.421875 C 34.140625 -16.335938 34.6875 -18.226562 34.6875 -20.09375 C 34.6875 -22.40625 33.8125 -24.363281 32.0625 -25.96875 C 30.3125 -27.570312 28.21875 -28.375 25.78125 -28.375 C 23.882812 -28.375 22.003906 -27.859375 20.140625 -26.828125 C 18.273438 -25.804688 16.769531 -24.425781 15.625 -22.6875 C 14.488281 -20.957031 13.921875 -19.03125 13.921875 -16.90625 C 13.921875 -14.3125 14.734375 -12.171875 16.359375 -10.484375 C 17.984375 -8.796875 20.0625 -7.953125 22.59375 -7.953125 Z M 22.59375 -7.953125 "/></g></g></g><g fill="#002144" fill-opacity="1"><g transform="translate(214.214623, 234.016185)"><g><path d="M 23.171875 -36.328125 C 26.453125 -36.328125 29.078125 -35.554688 31.046875 -34.015625 C 33.023438 -32.472656 34.015625 -30.257812 34.015625 -27.375 C 34.015625 -24.289062 33.097656 -21.566406 31.265625 -19.203125 C 29.441406 -16.835938 27.097656 -15.398438 24.234375 -14.890625 L 33.296875 0 L 21.546875 0 L 14.84375 -13.96875 L 14.75 -13.96875 L 12.53125 0 L 3.078125 0 L 8.8125 -36.328125 Z M 15.703125 -20.046875 L 17.015625 -20.046875 C 19.222656 -20.046875 20.9375 -20.507812 22.15625 -21.4375 C 23.382812 -22.375 24 -23.742188 24 -25.546875 C 24 -27.921875 22.039062 -29.109375 18.125 -29.109375 L 17.15625 -29.109375 Z M 15.703125 -20.046875 "/></g></g></g><g fill="#002144" fill-opacity="1"><g transform="translate(241.872919, 234.016185)"><g><path d="M 21.296875 -37.296875 C 25.179688 -37.296875 28.828125 -36.300781 32.234375 -34.3125 L 27.328125 -26.984375 C 25.617188 -28.585938 23.65625 -29.390625 21.4375 -29.390625 C 20.28125 -29.390625 19.226562 -29.0625 18.28125 -28.40625 C 17.332031 -27.75 16.859375 -26.9375 16.859375 -25.96875 C 16.859375 -25.257812 17.195312 -24.640625 17.875 -24.109375 C 18.550781 -23.585938 19.789062 -23.066406 21.59375 -22.546875 C 24.03125 -21.804688 25.796875 -21.09375 26.890625 -20.40625 C 27.984375 -19.71875 28.832031 -18.863281 29.4375 -17.84375 C 30.050781 -16.832031 30.359375 -15.578125 30.359375 -14.078125 C 30.359375 -11.890625 29.796875 -9.570312 28.671875 -7.125 C 27.546875 -4.6875 25.707031 -2.742188 23.15625 -1.296875 C 20.601562 0.148438 17.578125 0.90625 14.078125 0.96875 C 9.578125 0.96875 5.523438 -0.414062 1.921875 -3.1875 L 7.1875 -10.796875 C 9.6875 -8.285156 12.269531 -7.03125 14.9375 -7.03125 C 16.414062 -7.03125 17.660156 -7.414062 18.671875 -8.1875 C 19.679688 -8.957031 20.1875 -9.9375 20.1875 -11.125 C 20.1875 -12.664062 18.644531 -13.859375 15.5625 -14.703125 C 11.832031 -15.722656 9.421875 -16.816406 8.328125 -17.984375 C 7.242188 -19.160156 6.703125 -20.734375 6.703125 -22.703125 C 6.703125 -26.804688 8.101562 -30.265625 10.90625 -33.078125 C 13.71875 -35.890625 17.179688 -37.296875 21.296875 -37.296875 Z M 21.296875 -37.296875 "/></g></g></g></svg>